<?xml version="1.0" encoding="UTF-8" standalone="no"?>
<svg
   xmlns:dc="http://purl.org/dc/elements/1.1/"
   xmlns:cc="http://creativecommons.org/ns#"
   xmlns:rdf="http://www.w3.org/1999/02/22-rdf-syntax-ns#"
   xmlns:svg="http://www.w3.org/2000/svg"
   xmlns="http://www.w3.org/2000/svg"
   xmlns:sodipodi="http://sodipodi.sourceforge.net/DTD/sodipodi-0.dtd"
   xmlns:inkscape="http://www.inkscape.org/namespaces/inkscape"
   height="407pt"
   viewBox="-48 0 407 407"
   width="407pt"
   version="1.1"
   id="svg8"
   sodipodi:docname="delete.svg"
   inkscape:version="1.0.2 (e86c870879, 2021-01-15)">
  <metadata
     id="metadata14">
    <rdf:RDF>
      <cc:Work
         rdf:about="">
        <dc:format>image/svg+xml</dc:format>
        <dc:type
           rdf:resource="http://purl.org/dc/dcmitype/StillImage" />
        <dc:title></dc:title>
      </cc:Work>
    </rdf:RDF>
  </metadata>
  <defs
     id="defs12" />
  <sodipodi:namedview
     pagecolor="#ffffff"
     bordercolor="#666666"
     borderopacity="1"
     objecttolerance="10"
     gridtolerance="10"
     guidetolerance="10"
     inkscape:pageopacity="0"
     inkscape:pageshadow="2"
     inkscape:window-width="1920"
     inkscape:window-height="1047"
     id="namedview10"
     showgrid="false"
     inkscape:zoom="1.1480344"
     inkscape:cx="177.53998"
     inkscape:cy="257.19142"
     inkscape:window-x="0"
     inkscape:window-y="0"
     inkscape:window-maximized="1"
     inkscape:current-layer="svg8" />
  <path
     d="m89.199219 37c0-12.132812 9.46875-21 21.601562-21h88.800781c12.128907 0 21.597657 8.867188 21.597657 21v23h16v-23c0-20.953125-16.644531-37-37.597657-37h-88.800781c-20.953125 0-37.601562 16.046875-37.601562 37v23h16zm0 0"
     id="path2"
     style="fill:#1a1a1a;fill-opacity:1" />
  <path
     d="m60.601562 407h189.199219c18.242188 0 32.398438-16.046875 32.398438-36v-247h-254v247c0 19.953125 14.15625 36 32.402343 36zm145.597657-244.800781c0-4.417969 3.582031-8 8-8s8 3.582031 8 8v189c0 4.417969-3.582031 8-8 8s-8-3.582031-8-8zm-59 0c0-4.417969 3.582031-8 8-8s8 3.582031 8 8v189c0 4.417969-3.582031 8-8 8s-8-3.582031-8-8zm-59 0c0-4.417969 3.582031-8 8-8s8 3.582031 8 8v189c0 4.417969-3.582031 8-8 8s-8-3.582031-8-8zm0 0"
     id="path4"
     style="fill:#1a1a1a;fill-opacity:1" />
  <path
     d="m20 108h270.398438c11.046874 0 20-8.953125 20-20s-8.953126-20-20-20h-270.398438c-11.046875 0-20 8.953125-20 20s8.953125 20 20 20zm0 0"
     id="path6"
     style="fill:#1a1a1a;fill-opacity:1" />
</svg>
