<?xml version="1.0" encoding="UTF-8"?>
<svg xmlns="http://www.w3.org/2000/svg" xmlns:xlink="http://www.w3.org/1999/xlink" viewBox="0 0 60 60" width="60px" height="60px">
    <g id="surface4209430">
        <path
            style=" stroke:none;fill-rule:nonzero;fill:rgb(100%,100%,100%);fill-opacity:1;"
            d="M 6.695312 7.015625 C 3.003906 7.015625 0 10.019531 0 13.707031 L 0 46.292969 C 0 49.980469 3.003906 52.984375 6.695312 52.984375 L 53.308594 52.984375 C 57 52.984375 60 49.980469 60 46.292969 L 60 13.707031 C 60 10.019531 57 7.015625 53.308594 7.015625 Z M 23.425781 17.066406 C 23.84375 17.066406 24.257812 17.179688 24.632812 17.402344 L 42.453125 27.925781 C 43.195312 28.363281 43.640625 29.136719 43.640625 29.996094 C 43.640625 30.859375 43.195312 31.636719 42.453125 32.074219 L 24.636719 42.59375 C 24.253906 42.820312 23.832031 42.933594 23.410156 42.933594 C 23 42.933594 22.589844 42.824219 22.214844 42.613281 C 21.453125 42.175781 21 41.398438 21 40.519531 L 21 19.476562 C 21 18.601562 21.453125 17.820312 22.214844 17.386719 C 22.597656 17.167969 23.011719 17.0625 23.429688 17.066406 Z M 23.410156 19.066406 C 23.324219 19.066406 23.253906 19.097656 23.207031 19.125 C 23.128906 19.167969 23 19.273438 23 19.480469 L 23 40.519531 C 23 40.726562 23.128906 40.832031 23.207031 40.875 C 23.285156 40.921875 23.441406 40.980469 23.617188 40.875 L 41.4375 30.351562 C 41.613281 30.246094 41.636719 30.085938 41.636719 29.996094 C 41.636719 29.910156 41.613281 29.75 41.4375 29.648438 L 23.617188 19.125 C 23.546875 19.082031 23.472656 19.066406 23.410156 19.066406 Z M 23.410156 19.066406 "/>
    </g>
</svg>