<?xml version="1.0" encoding="UTF-8"?>
<svg xmlns="http://www.w3.org/2000/svg" xmlns:xlink="http://www.w3.org/1999/xlink" viewBox="0 0 48 48" width="48px" height="48px">
    <g id="surface4342128">
        <path
            style=" stroke:none;fill-rule:nonzero;fill:rgb(100%,100%,100%);fill-opacity:1;"
            d="M 18 14 C 16.71875 14 9.277344 14 8 14 C 5.789062 14 4 15.789062 4 18 C 4 20.210938 5.789062 22 8 22 C 9.277344 22 16.71875 22 18 22 C 20.210938 22 22 20.210938 22 18 C 22 15.789062 20.210938 14 18 14 Z M 22 8 C 22 9.195312 22 12 22 12 C 22 12 19.015625 12 18 12 C 15.789062 12 14 10.210938 14 8 C 14 5.789062 15.789062 4 18 4 C 20.210938 4 22 5.789062 22 8 Z M 14 28 C 14 29.28125 14 36.722656 14 38 C 14 40.210938 15.789062 42 18 42 C 20.210938 42 22 40.210938 22 38 C 22 36.722656 22 29.28125 22 28 C 22 25.789062 20.210938 24 18 24 C 15.789062 24 14 25.789062 14 28 Z M 8 24 C 9.195312 24 12 24 12 24 C 12 24 12 26.984375 12 28 C 12 30.210938 10.210938 32 8 32 C 5.789062 32 4 30.210938 4 28 C 4 25.789062 5.789062 24 8 24 Z M 28 32 C 29.28125 32 36.722656 32 38 32 C 40.210938 32 42 30.210938 42 28 C 42 25.789062 40.210938 24 38 24 C 36.722656 24 29.28125 24 28 24 C 25.789062 24 24 25.789062 24 28 C 24 30.207031 25.789062 32 28 32 Z M 24 38 C 24 36.804688 24 34 24 34 C 24 34 26.984375 34 28 34 C 30.210938 34 32 35.789062 32 38 C 32 40.210938 30.210938 42 28 42 C 25.789062 42 24 40.207031 24 38 Z M 32 18 C 32 16.71875 32 9.277344 32 8 C 32 5.789062 30.210938 4 28 4 C 25.789062 4 24 5.789062 24 8 C 24 9.277344 24 16.71875 24 18 C 24 20.210938 25.789062 22 28 22 C 30.207031 22 32 20.207031 32 18 Z M 38 22 C 36.804688 22 34 22 34 22 C 34 22 34 19.015625 34 18 C 34 15.789062 35.789062 14 38 14 C 40.210938 14 42 15.789062 42 18 C 42 20.210938 40.207031 22 38 22 Z M 38 22 "/>
    </g>
</svg>