<?xml version="1.0" encoding="UTF-8"?>
<svg xmlns="http://www.w3.org/2000/svg" xmlns:xlink="http://www.w3.org/1999/xlink" viewBox="0 0 48 48" width="48px" height="48px">
    <g id="surface4186557">
        <path
            style=" stroke:none;fill-rule:nonzero;fill:rgb(100%,100%,100%);fill-opacity:1;"
            d="M 16 6 C 10.476562 6 6 10.476562 6 16 L 6 32 C 6 37.523438 10.476562 42 16 42 L 32 42 C 37.523438 42 42 37.523438 42 32 L 42 16 C 42 10.476562 37.523438 6 32 6 Z M 36 10 C 37.105469 10 38 10.894531 38 12 C 38 13.105469 37.105469 14 36 14 C 34.894531 14 34 13.105469 34 12 C 34 10.894531 34.894531 10 36 10 Z M 24 14 C 29.523438 14 34 18.476562 34 24 C 34 29.523438 29.523438 34 24 34 C 18.476562 34 14 29.523438 14 24 C 14 18.476562 18.476562 14 24 14 Z M 24 18 C 20.6875 18 18 20.6875 18 24 C 18 27.3125 20.6875 30 24 30 C 27.3125 30 30 27.3125 30 24 C 30 20.6875 27.3125 18 24 18 Z M 24 18 "/>
    </g>
</svg>