<?xml version="1.0" encoding="UTF-8" standalone="no"?>
<svg
   width="127.263"
   height="30.311459"
   viewBox="0 0 127.263 30.311458"
   version="1.1"
   id="svg34"
   sodipodi:docname="logo-btn-2.svg"
   inkscape:version="1.1.2 (0a00cf5339, 2022-02-04)"
   xmlns:inkscape="http://www.inkscape.org/namespaces/inkscape"
   xmlns:sodipodi="http://sodipodi.sourceforge.net/DTD/sodipodi-0.dtd"
   xmlns="http://www.w3.org/2000/svg"
   xmlns:svg="http://www.w3.org/2000/svg">
  <sodipodi:namedview
     id="namedview36"
     pagecolor="#ffffff"
     bordercolor="#666666"
     borderopacity="1.0"
     inkscape:pageshadow="2"
     inkscape:pageopacity="0.0"
     inkscape:pagecheckerboard="0"
     showgrid="false"
     inkscape:zoom="5.1069015"
     inkscape:cx="73.136323"
     inkscape:cy="8.4199783"
     inkscape:window-width="1920"
     inkscape:window-height="1017"
     inkscape:window-x="0"
     inkscape:window-y="30"
     inkscape:window-maximized="1"
     inkscape:current-layer="svg34" />
  <defs
     id="defs4">
    <style
       id="style2">
            .a {
                fill: #FAFAFAFA;
            }
        </style>
  </defs>
  <g
     transform="translate(-360.953,-915.955)"
     id="g32"
     style="fill:#626161;fill-opacity:1">
    <g
       transform="translate(360.953,915.955)"
       id="g30"
       style="fill:#626161;fill-opacity:1">
      <path
         class="a"
         d="M 973.235,500.436 H 973.15 L 966.085,480 h -9.351 v 29.718 h 6.22 v -20.853 h 0.085 l 7.4,20.853 h 5.12 l 7.4,-21.06 h 0.085 v 21.06 h 6.22 V 480 h -9.344 z"
         transform="translate(-956.734,-480)"
         id="path20"
         style="fill:#626161;fill-opacity:1" />
      <path
         class="a"
         d="m 1117.293,516.786 c 0,-5.161 -5.246,-6.118 -9.6,-6.118 -4.908,0 -9.943,1.665 -10.281,7.2 v 0.333 h 5.981 c 0,0 0.016,-0.258 0.025,-0.333 v 0 c 0.212,-2.331 1.692,-3.247 3.977,-3.247 2.116,0 3.893,0.375 3.893,2.914 0,2.414 -3.427,2.289 -7.108,2.83 -3.723,0.5 -7.446,1.665 -7.446,6.534 0,4.412 3.3,6.451 7.446,6.451 a 10.129,10.129 0 0 0 7.362,-2.664 8.673,8.673 0 0 0 0.423,2.081 h 6.093 c -0.55,-0.874 -0.762,-2.83 -0.762,-4.787 z m -6.008,7.658 c 0,1.29 -0.169,4.953 -4.866,4.953 -1.946,0 -3.681,-0.541 -3.681,-2.747 0,-2.165 1.693,-2.789 3.554,-3.163 1.862,-0.333 3.977,-0.375 4.993,-1.249 z"
         transform="translate(-1061.96,-503.051)"
         id="path22"
         style="fill:#626161;fill-opacity:1" />
      <path
         class="a"
         d="m 1294.612,487.617 a 7.714,7.714 0 0 0 -6.389,3.579 h -0.127 V 480 h -6.008 v 29.718 h 6.008 v -11.279 c 0,-4.37 1.4,-6.16 4.654,-6.16 2.793,0 3.85,1.748 3.85,5.286 v 12.154 h 6.008 v -13.237 c 10e-4,-5.327 -1.608,-8.865 -7.996,-8.865 z"
         transform="translate(-1201.281,-480)"
         id="path24"
         style="fill:#626161;fill-opacity:1" />
      <path
         class="a"
         d="m 1423.635,482.347 c -0.635,4.453 -4.485,5.869 -8.674,5.785 v 4.454 h 7.447 v 18.9 h 6.008 v -29.139 z"
         transform="translate(-1301.153,-481.764)"
         id="path26"
         style="fill:#626161;fill-opacity:1" />
      <path
         class="a"
         d="m 1203,525.1 a 4.5,4.5 0 0 1 -4.675,3.8 c -3.766,0 -4.993,-3.7 -4.993,-6.784 0,-3.163 1.27,-6.992 5.12,-6.992 a 4.032,4.032 0 0 1 4.311,3.08 h 5.947 c -0.685,-5.071 -5.254,-7.533 -10.216,-7.533 -7.108,0 -11.17,4.953 -11.17,11.654 0,6.451 4.443,11.03 11.043,11.03 5.559,0 9.5,-2.914 10.446,-8.254 z"
         transform="translate(-1130.057,-503.051)"
         id="path28"
         style="fill:#626161;fill-opacity:1" />
    </g>
  </g>
</svg>
