<svg xmlns="http://www.w3.org/2000/svg" width="233.018" height="89.411" viewBox="0 0 233.018 89.411">
    <defs>
        <style>
            .a {
                fill: #FAFAFAFA;
            }
        </style>
    </defs>
    <g transform="translate(-255.199 -886.151)">
        <g transform="translate(255.199 886.151)">
            <path class="a" d="M575.64,365.961a38.745,38.745,0,1,1-27.4,11.348,38.492,38.492,0,0,1,27.4-11.348m0-5.961a44.706,44.706,0,1,0,44.706,44.706A44.706,44.706,0,0,0,575.64,360Z" transform="translate(-530.934 -360)"/>
            <g transform="translate(17.882 29.763)">
                <rect class="a" width="29.804" height="5.961" transform="translate(0 29.804) rotate(-90)"/>
                <rect class="a" width="29.804" height="5.961" transform="translate(11.922 29.804) rotate(-90)"/>
                <rect class="a" width="29.804" height="5.961" transform="translate(23.843 29.804) rotate(-90)"/>
                <rect class="a" width="29.804" height="5.961" transform="translate(47.686 29.804) rotate(-90)"/>
            </g>
        </g>
        <g transform="translate(360.953 915.955)">
            <path class="a" d="M973.235,500.436h-.085L966.085,480h-9.351v29.718h6.22V488.865h.085l7.4,20.853h5.12l7.4-21.06h.085v21.06h6.22V480H979.92Z" transform="translate(-956.734 -480)"/>
            <path
                class="a"
                d="M1117.293,516.786c0-5.161-5.246-6.118-9.6-6.118-4.908,0-9.943,1.665-10.281,7.2v.333h5.981s.016-.258.025-.333h0c.212-2.331,1.692-3.247,3.977-3.247,2.116,0,3.893.375,3.893,2.914,0,2.414-3.427,2.289-7.108,2.83-3.723.5-7.446,1.665-7.446,6.534,0,4.412,3.3,6.451,7.446,6.451a10.129,10.129,0,0,0,7.362-2.664,8.673,8.673,0,0,0,.423,2.081h6.093c-.55-.874-.762-2.83-.762-4.787Zm-6.008,7.658c0,1.29-.169,4.953-4.866,4.953-1.946,0-3.681-.541-3.681-2.747,0-2.165,1.693-2.789,3.554-3.163,1.862-.333,3.977-.375,4.993-1.249Z"
                transform="translate(-1061.96 -503.051)"/>
            <path
                class="a"
                d="M1294.612,487.617a7.714,7.714,0,0,0-6.389,3.579h-.127V480h-6.008v29.718h6.008V498.439c0-4.37,1.4-6.16,4.654-6.16,2.793,0,3.85,1.748,3.85,5.286v12.154h6.008V496.482C1302.609,491.155,1301,487.617,1294.612,487.617Z"
                transform="translate(-1201.281 -480)"/>
            <path class="a" d="M1423.635,482.347c-.635,4.453-4.485,5.869-8.674,5.785v4.454h7.447v18.9h6.008V482.347Z" transform="translate(-1301.153 -481.764)"/>
            <path
                class="a"
                d="M1203,525.1a4.5,4.5,0,0,1-4.675,3.8c-3.766,0-4.993-3.7-4.993-6.784,0-3.163,1.27-6.992,5.12-6.992a4.032,4.032,0,0,1,4.311,3.08h5.947c-.685-5.071-5.254-7.533-10.216-7.533-7.108,0-11.17,4.953-11.17,11.654,0,6.451,4.443,11.03,11.043,11.03,5.559,0,9.5-2.914,10.446-8.254Z"
                transform="translate(-1130.057 -503.051)"/>
        </g>
    </g>
</svg>