<svg version="1.2" xmlns="http://www.w3.org/2000/svg" viewBox="0 0 262 64" width="262" height="64">
	<style>
		.s0 { fill: #100f0d }
	</style>
	<g id="layer1">
		<path id="path26" class="s0" d="m31.58 0.27c-17.53 0-31.75 14.21-31.75 31.75 0 17.53 14.22 31.75 31.75 31.75 17.54 0 31.75-14.22 31.75-31.75 0-17.54-14.21-31.75-31.75-31.75zm0 4.23c7.35 0 14.26 2.86 19.46 8.06 5.2 5.2 8.06 12.11 8.06 19.46 0 7.35-2.86 14.26-8.06 19.45-5.2 5.2-12.11 8.06-19.46 8.06-7.35 0-14.26-2.86-19.45-8.06-5.2-5.19-8.06-12.1-8.06-19.45 0-7.35 2.86-14.26 8.06-19.46 5.19-5.2 12.1-8.06 19.45-8.06z"/>
		<path id="path28" class="s0" d="m12.53 21.41v21.16h4.24v-21.16z"/>
		<path id="path30" class="s0" d="m21 21.41v21.16h4.23v-21.16z"/>
		<path id="path32" class="s0" d="m29.47 21.41v21.16h4.23v-21.16z"/>
		<path id="path34" class="s0" d="m46.4 21.41v21.16h4.23v-21.16z"/>
		<path id="path36" class="s0" d="m104.41 39.88h-0.12l-10.03-29.03h-13.29v42.21h8.84v-29.62h0.12l10.52 29.62h7.27l10.51-29.91h0.12v29.91h8.84v-42.21h-13.28z"/>
		<path id="path38" class="s0" d="m159.57 30.36c0-7.33-7.46-8.69-13.64-8.69-6.98 0-14.13 2.36-14.61 10.23v0.47h8.5c0 0 0.02-0.37 0.03-0.47h0.01c0.3-3.31 2.4-4.61 5.65-4.61 3 0 5.53 0.53 5.53 4.13 0 3.43-4.87 3.26-10.1 4.03-5.29 0.7-10.58 2.36-10.58 9.28 0 6.26 4.69 9.16 10.58 9.16 3.78 0 7.75-1 10.46-3.78 0.06 1 0.3 2.01 0.59 2.95h8.66c-0.78-1.24-1.08-4.02-1.08-6.8 0 0 0-15.9 0-15.9zm-8.53 10.88c0 1.83-0.24 7.03-6.92 7.03-2.76 0-5.22-0.76-5.22-3.9 0-3.07 2.4-3.96 5.04-4.49 2.65-0.47 5.65-0.53 7.1-1.77z"/>
		<path id="path40" class="s0" d="m213.54 21.67c-3.19 0-6.91 1.66-9.07 5.08h-0.18v-15.9h-8.54v42.21h8.54v-16.02c0-6.21 1.98-8.75 6.6-8.75 3.97 0 5.48 2.48 5.48 7.51v17.26h8.53v-18.8c0-7.56-2.29-12.59-11.36-12.59z"/>
		<path id="path42" class="s0" d="m254.95 11.68c-0.91 6.32-6.38 8.33-12.32 8.22v6.32h10.57v26.84h8.54v-41.38z"/>
		<path id="path44" class="s0" d="m184.59 42.17c-0.74 3.27-2.97 5.39-6.64 5.39-5.35 0-7.09-5.26-7.09-9.63 0-4.5 1.8-9.93 7.27-9.93 3.22 0 5.36 1.51 6.12 4.37h8.45c-0.98-7.2-7.46-10.7-14.51-10.7-10.1 0-15.87 7.04-15.87 16.55 0 9.17 6.31 15.67 15.69 15.67 7.89 0 13.49-4.14 14.84-11.72z"/>
	</g>
</svg>
