<?xml version="1.0" encoding="UTF-8" standalone="no"?>
<svg
   height="875.82263pt"
   viewBox="0 -53 960.72296 874.11204"
   width="960.72296pt"
   version="1.1"
   id="svg4"
   sodipodi:docname="photo.svg"
   inkscape:version="1.1 (c68e22c387, 2021-05-23)"
   xmlns:inkscape="http://www.inkscape.org/namespaces/inkscape"
   xmlns:sodipodi="http://sodipodi.sourceforge.net/DTD/sodipodi-0.dtd"
   xmlns="http://www.w3.org/2000/svg"
   xmlns:svg="http://www.w3.org/2000/svg">
  <defs
     id="defs8" />
  <sodipodi:namedview
     id="namedview6"
     pagecolor="#ffffff"
     bordercolor="#666666"
     borderopacity="1.0"
     inkscape:pageshadow="2"
     inkscape:pageopacity="0.0"
     inkscape:pagecheckerboard="0"
     inkscape:document-units="pt"
     showgrid="false"
     inkscape:zoom="0.63446243"
     inkscape:cx="494.90716"
     inkscape:cy="607.60099"
     inkscape:window-width="1920"
     inkscape:window-height="1047"
     inkscape:window-x="0"
     inkscape:window-y="0"
     inkscape:window-maximized="1"
     inkscape:current-layer="svg4" />
  <rect
     style="fill:#cccccc;stroke-width:1.29114"
     id="rect967"
     width="960.72296"
     height="875.82263"
     x="0"
     y="-53.5" />
  <path
     d="m 677.69352,245.7453 h -85.33204 l -11.625,-27.90235 C 571.60367,195.9328 550.33414,181.7453 526.59195,181.7453 h -94.52734 c -22.35938,0 -42.45703,12.4375 -52.46094,32.42578 l -15.78515,31.57422 h -80.78907 c -32.36328,0 -58.66797,26.30469 -58.66797,58.66798 v 224 c 0,32.36328 26.30469,58.66406 58.66797,58.66406 h 389.33203 c 30.27344,0 64,-24.08594 64,-58.66406 v -224 c 0,-32.36329 -26.30468,-58.66798 -58.66796,-58.66798 z M 480.36148,512.41328 c -58.8164,0 -106.66796,-47.85156 -106.66796,-106.66797 0,-58.81641 47.85156,-106.66797 106.66796,-106.66797 58.81641,0 106.66797,47.85156 106.66797,106.66797 0,58.81641 -47.85156,106.66797 -106.66797,106.66797 z M 651.00602,352.43281 c -11.75391,0 -21.33204,-9.57813 -21.33204,-21.33203 0,-11.75391 9.57813,-21.33594 21.33204,-21.33594 11.7539,0 21.33593,9.58203 21.33593,21.33594 0,11.7539 -9.58203,21.33203 -21.33593,21.33203 z m 0,0"
     id="path2"
     style="fill:#333333" />
</svg>
