<?xml version="1.0" encoding="UTF-8" standalone="no"?>
<svg
    height="409pt"
    viewBox="0 -47 409.6 409"
    width="409pt"
    version="1.1"
    id="svg28"
    sodipodi:docname="sound-waves.svg"
    inkscape:version="1.1 (c68e22c387, 2021-05-23)"
    xmlns:inkscape="http://www.inkscape.org/namespaces/inkscape"
    xmlns:sodipodi="http://sodipodi.sourceforge.net/DTD/sodipodi-0.dtd"
    xmlns="http://www.w3.org/2000/svg"
    xmlns:svg="http://www.w3.org/2000/svg">
    <sodipodi:namedview
        id="namedview17"
        pagecolor="#ffffff"
        bordercolor="#666666"
        borderopacity="1.0"
        inkscape:pageshadow="2"
        inkscape:pageopacity="0.0"
        inkscape:pagecheckerboard="0"
        inkscape:document-units="pt"
        showgrid="false"
        inkscape:zoom="1.2011002"
        inkscape:cx="240.61273"
        inkscape:cy="282.65752"
        inkscape:window-width="1920"
        inkscape:window-height="1017"
        inkscape:window-x="1920"
        inkscape:window-y="30"
        inkscape:window-maximized="1"
        inkscape:current-layer="svg28"/>
    <defs id="defs32"/>
    <path
        d="m307.199219 160.726562c0 84.832032-68.769531 153.601563-153.597657 153.601563-84.832031 0-153.601562-68.769531-153.601562-153.601563 0-84.832031 68.769531-153.601562 153.601562-153.601562 84.828126 0 153.597657 68.769531 153.597657 153.601562zm0 0"
        fill="#ffe8dc"
        id="path2"
        style="fill:#eeeeee;fill-opacity:1.0"/>
    <g fill="#4c241d" id="g26" style="fill:#5c5c5c;fill-opacity:1.0">
        <path
            d="m61.441406 150.488281c-3.769531 0-6.828125-3.058593-6.828125-6.828125v-34.132812c0-3.769532 3.058594-6.828125 6.828125-6.828125 3.769532 0 6.824219 3.058593 6.824219 6.828125v34.132812c0 3.769532-3.054687 6.828125-6.824219 6.828125zm0 0"
            id="path4"
            style="fill:#5c5c5c;fill-opacity:1.0"/>
        <path
            d="m95.597656 182.921875c-3.769531 0-6.828125-3.058594-6.828125-6.828125v-94.515625c0-3.773437 3.058594-6.828125 6.828125-6.828125 3.769532 0 6.828125 3.054688 6.828125 6.828125v94.515625c0 3.769531-3.058593 6.828125-6.828125 6.828125zm0 0"
            id="path6"
            style="fill:#5c5c5c;fill-opacity:1.0"/>
        <path
            d="m129.707031 232.40625c-3.769531 0-6.828125-3.054688-6.828125-6.828125v-191.144531c0-3.769532 3.058594-6.828125 6.828125-6.828125s6.828125 3.058593 6.828125 6.828125v191.144531c0 3.773437-3.058594 6.828125-6.828125 6.828125zm0 0"
            id="path8"
            style="fill:#5c5c5c;fill-opacity:1.0"/>
        <path
            d="m163.839844 191.445312c-3.769532 0-6.828125-3.054687-6.828125-6.824218v-116.054688c0-3.769531 3.058593-6.828125 6.828125-6.828125 3.769531 0 6.828125 3.058594 6.828125 6.828125v116.054688c0 3.769531-3.058594 6.824218-6.828125 6.824218zm0 0"
            id="path10"
            style="fill:#5c5c5c;fill-opacity:1.0"/>
        <path
            d="m266.90625 212.457031c-3.769531 0-6.824219-3.054687-6.824219-6.828125v-153.589844c0-3.769531 3.054688-6.828124 6.824219-6.828124s6.828125 3.058593 6.828125 6.828124v153.589844c0 3.773438-3.058594 6.828125-6.828125 6.828125zm0 0"
            id="path12"
            style="fill:#5c5c5c;fill-opacity:1.0"/>
        <path
            d="m334.507812 205.101562c-3.769531 0-6.828124-3.058593-6.828124-6.828124v-136.535157c0-3.769531 3.058593-6.824219 6.828124-6.824219 3.769532 0 6.824219 3.054688 6.824219 6.824219v136.535157c0 3.769531-3.054687 6.828124-6.824219 6.828124zm0 0"
            id="path14"
            style="fill:#5c5c5c;fill-opacity:1.0"/>
        <path
            d="m368.640625 170.964844c-3.769531 0-6.828125-3.054688-6.828125-6.824219v-68.265625c0-3.773438 3.058594-6.828125 6.828125-6.828125s6.824219 3.054687 6.824219 6.828125v68.265625c0 3.769531-3.054688 6.824219-6.824219 6.824219zm0 0"
            id="path16"
            style="fill:#5c5c5c;fill-opacity:1.0"/>
        <path
            d="m300.375 259.714844c-3.773438 0-6.828125-3.058594-6.828125-6.828125v-245.761719c0-3.769531 3.054687-6.824219 6.828125-6.824219 3.769531 0 6.824219 3.054688 6.824219 6.824219v245.761719c0 3.769531-3.054688 6.828125-6.824219 6.828125zm0 0"
            id="path18"
            style="fill:#5c5c5c;fill-opacity:1.0"/>
        <path
            d="m197.972656 150.488281c-3.769531 0-6.824218-3.058593-6.824218-6.828125v-27.308594c0-3.769531 3.054687-6.824218 6.824218-6.824218 3.769532 0 6.828125 3.054687 6.828125 6.824218v27.308594c0 3.769532-3.058593 6.828125-6.828125 6.828125zm0 0"
            id="path20"
            style="fill:#5c5c5c;fill-opacity:1.0"/>
        <path
            d="m402.773438 150.429688c-3.769532 0-6.828126-3.054688-6.828126-6.824219v-29.539063c0-3.769531 3.058594-6.828125 6.828126-6.828125 3.769531 0 6.828124 3.058594 6.828124 6.828125v29.539063c0 3.769531-3.058593 6.824219-6.828124 6.824219zm0 0"
            id="path22"
            style="fill:#5c5c5c;fill-opacity:1.0"/>
        <path
            d="m231.464844 163.445312c-3.773438 0-6.828125-3.054687-6.828125-6.824218v-55.570313c0-3.769531 3.054687-6.828125 6.828125-6.828125 3.769531 0 6.824218 3.058594 6.824218 6.828125v55.570313c0 3.769531-3.054687 6.824218-6.824218 6.824218zm0 0"
            id="path24"
            style="fill:#5c5c5c;fill-opacity:1.0"/>
    </g>
</svg>