<?xml version="1.0" encoding="UTF-8" standalone="no"?>
<svg
   xmlns:dc="http://purl.org/dc/elements/1.1/"
   xmlns:cc="http://creativecommons.org/ns#"
   xmlns:rdf="http://www.w3.org/1999/02/22-rdf-syntax-ns#"
   xmlns:svg="http://www.w3.org/2000/svg"
   xmlns="http://www.w3.org/2000/svg"
   xmlns:sodipodi="http://sodipodi.sourceforge.net/DTD/sodipodi-0.dtd"
   xmlns:inkscape="http://www.inkscape.org/namespaces/inkscape"
   height="354pt"
   viewBox="0 -47 354.98667 354"
   width="354pt"
   version="1.1"
   id="svg24"
   sodipodi:docname="sound-waves.svg"
   inkscape:version="1.0.2 (e86c870879, 2021-01-15)">
  <metadata
     id="metadata30">
    <rdf:RDF>
      <cc:Work
         rdf:about="">
        <dc:format>image/svg+xml</dc:format>
        <dc:type
           rdf:resource="http://purl.org/dc/dcmitype/StillImage" />
        <dc:title></dc:title>
      </cc:Work>
    </rdf:RDF>
  </metadata>
  <defs
     id="defs28" />
  <sodipodi:namedview
     pagecolor="#ffffff"
     bordercolor="#666666"
     borderopacity="1"
     objecttolerance="10"
     gridtolerance="10"
     guidetolerance="10"
     inkscape:pageopacity="0"
     inkscape:pageshadow="2"
     inkscape:window-width="1920"
     inkscape:window-height="1047"
     id="namedview26"
     showgrid="false"
     inkscape:zoom="1.3199153"
     inkscape:cx="167.8846"
     inkscape:cy="236"
     inkscape:window-x="0"
     inkscape:window-y="0"
     inkscape:window-maximized="1"
     inkscape:current-layer="svg24" />
  <path
     d="m6.828125 102.894531c-3.773437 0-6.828125 3.054688-6.828125 6.824219v34.132812c0 3.773438 3.054688 6.828126 6.828125 6.828126 3.769531 0 6.824219-3.054688 6.824219-6.828126v-34.132812c0-3.769531-3.054688-6.824219-6.824219-6.824219zm0 0"
     id="path2"
     style="fill:#1a1a1a;fill-opacity:1" />
  <path
     d="m40.984375 74.941406c-3.769531 0-6.828125 3.058594-6.828125 6.828125v94.515625c0 3.773438 3.058594 6.828125 6.828125 6.828125s6.828125-3.054687 6.828125-6.828125v-94.515625c0-3.769531-3.058594-6.828125-6.828125-6.828125zm0 0"
     id="path4"
     style="fill:#1a1a1a;fill-opacity:1" />
  <path
     d="m75.09375 27.800781c-3.769531 0-6.828125 3.054688-6.828125 6.824219v191.148438c0 3.769531 3.058594 6.828124 6.828125 6.828124s6.828125-3.058593 6.828125-6.828124v-191.148438c0-3.769531-3.058594-6.824219-6.828125-6.824219zm0 0"
     id="path6"
     style="fill:#1a1a1a;fill-opacity:1" />
  <path
     d="m109.226562 61.933594c-3.769531 0-6.828124 3.054687-6.828124 6.828125v116.050781c0 3.769531 3.058593 6.828125 6.828124 6.828125 3.769532 0 6.828126-3.058594 6.828126-6.828125v-116.050781c0-3.773438-3.058594-6.828125-6.828126-6.828125zm0 0"
     id="path8"
     style="fill:#1a1a1a;fill-opacity:1" />
  <path
     d="m212.292969 45.40625c-3.769531 0-6.824219 3.054688-6.824219 6.828125v153.589844c0 3.769531 3.054688 6.824219 6.824219 6.824219s6.828125-3.054688 6.828125-6.824219v-153.589844c0-3.773437-3.058594-6.828125-6.828125-6.828125zm0 0"
     id="path10"
     style="fill:#1a1a1a;fill-opacity:1" />
  <path
     d="m279.894531 55.105469c-3.769531 0-6.828125 3.058593-6.828125 6.828125v136.53125c0 3.773437 3.058594 6.828125 6.828125 6.828125s6.824219-3.054688 6.824219-6.828125v-136.53125c0-3.769532-3.054688-6.828125-6.824219-6.828125zm0 0"
     id="path12"
     style="fill:#1a1a1a;fill-opacity:1" />
  <path
     d="m314.027344 89.238281c-3.769532 0-6.828125 3.058594-6.828125 6.828125v68.265625c0 3.769531 3.058593 6.828125 6.828125 6.828125 3.769531 0 6.824218-3.058594 6.824218-6.828125v-68.265625c0-3.769531-3.054687-6.828125-6.824218-6.828125zm0 0"
     id="path14"
     style="fill:#1a1a1a;fill-opacity:1" />
  <path
     d="m245.761719.492188c-3.773438 0-6.828125 3.058593-6.828125 6.828124v245.757813c0 3.773437 3.054687 6.828125 6.828125 6.828125 3.769531 0 6.824219-3.054688 6.824219-6.828125v-245.757813c0-3.769531-3.054688-6.828124-6.824219-6.828124zm0 0"
     id="path16"
     style="fill:#1a1a1a;fill-opacity:1" />
  <path
     d="m143.359375 109.71875c-3.769531 0-6.824219 3.058594-6.824219 6.828125v27.304687c0 3.773438 3.054688 6.828126 6.824219 6.828126s6.828125-3.054688 6.828125-6.828126v-27.304687c0-3.769531-3.058594-6.828125-6.828125-6.828125zm0 0"
     id="path18"
     style="fill:#1a1a1a;fill-opacity:1" />
  <path
     d="m348.160156 107.433594c-3.769531 0-6.828125 3.054687-6.828125 6.824218v29.539063c0 3.769531 3.058594 6.828125 6.828125 6.828125 3.769532 0 6.828125-3.058594 6.828125-6.828125v-29.539063c0-3.769531-3.058593-6.824218-6.828125-6.824218zm0 0"
     id="path20"
     style="fill:#1a1a1a;fill-opacity:1" />
  <path
     d="m176.851562 94.417969c-3.773437 0-6.828124 3.054687-6.828124 6.824219v55.570312c0 3.769531 3.054687 6.828125 6.828124 6.828125 3.769532 0 6.824219-3.058594 6.824219-6.828125v-55.570312c0-3.769532-3.054687-6.824219-6.824219-6.824219zm0 0"
     id="path22"
     style="fill:#1a1a1a;fill-opacity:1" />
</svg>
